<?xml version="1.0" encoding="UTF-8"?>
<svg width="319px" height="75px" viewBox="0 0 319 75" version="1.1" xmlns="http://www.w3.org/2000/svg" xmlns:xlink="http://www.w3.org/1999/xlink">
    <!-- Generator: Sketch 52.5 (67469) - http://www.bohemiancoding.com/sketch -->
    <title>Artboard</title>
    <desc>Created with Sketch.</desc>
    <defs>
        <path d="M24.431872,11.3999866 C24.3351584,8.72396688 21.3281507,9.43708352 20.5185674,7.79513218 C19.7279895,6.19212385 21.0872663,5.64276478 21.0872663,3.85379261 C21.0872663,1.73457053 19.3211174,0.0164834059 17.1424735,0.0164834059 C14.3296804,0.0164834059 14.3692656,2.31915334 12.2252587,2.31915334 L12.2250338,2.31915334 C10.0811393,2.31915334 10.120612,0.0164834059 7.30770646,0.0164834059 C5.12906259,0.0164834059 3.36291372,1.73457053 3.36291372,3.85379261 C3.36291372,5.64276478 4.72219047,6.19212385 3.93172499,7.79513218 C3.12202923,9.43708352 0.115134082,8.72396688 0.0183079645,11.3999866 C-0.0273498795,12.6624623 1.07113736,13.6874512 2.3700243,13.6874512 C3.66879878,13.6874512 4.72882548,12.663228 4.72162818,11.3999866 C4.71578038,10.3673403 3.9891909,9.99956945 4.25020532,8.76870759 L4.25065515,8.76870759 C4.4605013,7.73934302 5.59340061,6.85765563 7.05546374,6.68033363 C8.6938606,6.48178988 10.54514,7.26874511 10.54514,9.04579372 C10.54514,10.1461527 9.8752292,10.2951426 9.8752292,11.3999866 C9.8752292,12.6141117 10.8921846,13.6874512 12.2233469,13.6874512 C13.5545092,13.6874512 14.5749508,12.6141117 14.5749508,11.3999866 C14.5749508,10.2951426 13.9051524,10.1461527 13.9051524,9.04579372 C13.9051524,7.26874511 15.7563194,6.48178988 17.3947162,6.68033363 C18.8568918,6.85765563 19.9899036,7.73934302 20.1995248,8.76870759 L20.2000871,8.76870759 C20.4608766,9.99956945 19.7343996,10.3673403 19.7285518,11.3999866 C19.721467,12.663228 20.7813812,13.6874512 22.0801557,13.6874512 C23.3790426,13.6874512 24.4775299,12.6624623 24.431872,11.3999866 M12.2268331,7.59724477 C10.9280586,7.59724477 9.8752292,6.57302156 9.8752292,5.30967072 C9.8752292,4.04642927 10.9280586,3.02220606 12.2268331,3.02220606 C13.52572,3.02220606 14.5785494,4.04642927 14.5785494,5.30967072 C14.5785494,6.57302156 13.52572,7.59724477 12.2268331,7.59724477" id="path-1"></path>
    </defs>
    <g id="Artboard" stroke="none" stroke-width="1" fill="none" fill-rule="evenodd">
        <g id="Group-4" transform="translate(1.000000, -0.066406)">
            <path d="M0.376874692,73.8709361 L316.951616,73.8709361" id="Line-2" stroke="#DCDCDC" stroke-width="2" stroke-linecap="square"></path>
            <g id="Group" transform="translate(44.471214, 12.813740)">
                <g id="Books" transform="translate(0.000000, 17.336236)">
                    <g id="0" transform="translate(0.000000, 0.018218)">
                        <rect id="Rectangle-1554" stroke="#007398" fill="#FFFFFF" x="0.5" y="0.5" width="62.3149483" height="10.2915191"></rect>
                        <path d="M3.80816189,1.11590241 L3.80816189,10.160895" id="Line-Copy-28" stroke="#99C7D5" stroke-linecap="square"></path>
                        <path d="M6.06941004,1.11590241 L6.06941004,10.160895" id="Line-Copy-28" stroke="#99C7D5" stroke-linecap="square"></path>
                        <polygon id="Rectangle-1554-Copy" fill="#99C7D5" points="36.1798324 3.00027587 60.3264498 3.00027587 60.3264498 8.27652156 36.1798324 8.27652156"></polygon>
                    </g>
                    <g id="1" transform="translate(7.537494, 10.570709)">
                        <rect id="Rectangle-1554" stroke="#007398" fill="#FFFFFF" x="0.5" y="0.5" width="62.3149483" height="10.2915191"></rect>
                        <polygon id="Rectangle-1554-Copy" fill="#99C7D5" points="19.5841655 3.00027587 60.3204691 3.00027587 60.3204691 8.27652156 19.5841655 8.27652156"></polygon>
                    </g>
                    <g id="2" transform="translate(15.074988, 21.123201)">
                        <rect id="Rectangle-1554" stroke="#007398" fill="#FFFFFF" x="0.5" y="0.5" width="62.3149483" height="10.2915191"></rect>
                        <path d="M4.09449832,1.12326324 L4.09449832,10.1682559" id="Line-Copy-28" stroke="#99C7D5" stroke-linecap="square"></path>
                    </g>
                    <g id="3" transform="translate(0.000000, 31.675692)">
                        <rect id="Rectangle-1554" stroke="#007398" fill="#FFFFFF" x="0.5" y="0.5" width="62.3149483" height="10.2915191"></rect>
                        <polygon id="Rectangle-1554-Copy" fill="#99C7D5" points="3.00167903 3.00027587 9.87805498 3.00027587 9.87805498 8.27652156 3.00167903 8.27652156"></polygon>
                    </g>
                </g>
                <g id="Stats" transform="translate(67.310409, 0.000000)">
                    <path d="M6.96782554,4.98811833 C6.13939841,4.98811833 5.46782554,5.65969121 5.46782554,6.48811833 L5.46782554,55.2641697 C5.46782554,56.0925969 6.13939841,56.7641697 6.96782554,56.7641697 L42.5498641,56.7641697 C43.3782912,56.7641697 44.0498641,56.0925969 44.0498641,55.2641697 L44.0498641,6.48811833 C44.0498641,5.65969121 43.3782912,4.98811833 42.5498641,4.98811833 L6.96782554,4.98811833 Z" id="Page" stroke="#007398" fill="#E5F1F4" transform="translate(24.758845, 30.876144) rotate(-10.000000) translate(-24.758845, -30.876144) "></path>
                    <path d="M10.4796806,0.5 C9.65125345,0.5 8.97968058,1.17157288 8.97968058,2 L8.97968058,58.2999508 C8.97968058,59.1283779 9.65125345,59.7999508 10.4796806,59.7999508 L51.7046436,59.7999508 C52.5330708,59.7999508 53.2046436,59.1283779 53.2046436,58.2999508 L53.2046436,2 C53.2046436,1.17157288 52.5330708,0.5 51.7046436,0.5 L10.4796806,0.5 Z" id="Page" stroke="#007398" fill="#FFFFFF"></path>
                    <g id="Headline" transform="translate(16.017174, 6.595307)" stroke="#99C7D5" stroke-linecap="round">
                        <path d="M0.471093365,1.41609792 L14.6038943,1.41609792" id="Line"></path>
                        <path d="M0.471093365,4.24265811 L14.6038943,4.24265811" id="Line"></path>
                        <path d="M0.471093365,7.0692183 L7.06640108,7.0692183" id="Line"></path>
                    </g>
                    <g id="Text" transform="translate(16.017174, 19.785921)" stroke="#99C7D5" stroke-linecap="round">
                        <path d="M0.473738665,22.1452411 L29.6833244,22.1452411" id="Line"></path>
                        <path d="M0.473738665,24.9718013 L29.6788823,24.9718013" id="Line"></path>
                        <path d="M0.473738665,27.7983615 L29.6833244,27.7983615" id="Line"></path>
                        <path d="M0.473738665,30.6249217 L14.6038949,30.6249217" id="Line"></path>
                        <path d="M0.473738665,7.07025342 L29.6833244,7.07025342" id="Line"></path>
                        <path d="M0.473738665,1.41713303 L29.6833244,1.41713303" id="Line"></path>
                        <path d="M0.473738665,4.24369322 L29.6833244,4.24369322" id="Line"></path>
                        <path d="M0.473738665,11.7811871 L29.6833244,11.7811871" id="Line"></path>
                        <path d="M0.473738665,14.6077473 L29.6833244,14.6077473" id="Line"></path>
                        <path d="M0.473738665,17.4343075 L14.6038949,17.4343075" id="Line"></path>
                    </g>
                </g>
                <g id="Coffee" transform="translate(51.655618, 16.695475)" stroke="#007398">
                    <path d="M3.15276755,7.5632777 C3.13359228,7.56352289 3.13359228,7.56352289 3.1144546,7.56474775 C2.83912411,7.5859074 2.63307794,7.82626016 2.6542376,8.10159065 L5.30911746,42.6470154 C5.32913841,42.9075289 5.54636565,43.1087024 5.80764742,43.1087024 L23.9200838,43.1087024 C24.1813655,43.1087024 24.3985928,42.9075289 24.4186137,42.6470154 L27.0734936,8.10159065 C27.0747184,8.08245297 27.0747184,8.08245297 27.0749636,8.0632777 C27.0749636,7.78713533 26.851106,7.5632777 26.5749636,7.5632777 L3.15276755,7.5632777 Z" id="Rectangle-3" fill="#FFFFFF"></path>
                    <path d="M6.81385164,0.822320876 C5.98542452,0.822320876 5.31385164,1.49389375 5.31385164,2.32232088 L5.31385164,3.80413458 C5.31385164,4.63256171 5.98542452,5.30413458 6.81385164,5.30413458 L22.9138352,5.30413458 C23.7422624,5.30413458 24.4138352,4.63256171 24.4138352,3.80413458 L24.4138352,2.32232088 C24.4138352,1.49389375 23.7422624,0.822320876 22.9138352,0.822320876 L6.81385164,0.822320876 Z" id="Rectangle-5" fill="#E5F1F4"></path>
                    <path d="M2.84536721,4.82237085 C2.63192584,4.82237085 2.44201889,4.9578611 2.37257277,5.15968889 L1.17452935,8.6415026 C1.15651737,8.69384991 1.14732378,8.74882508 1.14732378,8.80418456 C1.14732378,9.08032693 1.37118141,9.30418456 1.64732378,9.30418456 L28.0804074,9.30418456 C28.1357669,9.30418456 28.1907421,9.29499097 28.2430894,9.27697899 C28.5042065,9.18713223 28.6430486,8.90261976 28.5532018,8.6415026 L27.3551584,5.15968889 C27.2857123,4.9578611 27.0958053,4.82237085 26.882364,4.82237085 L2.84536721,4.82237085 Z" id="Rectangle-4" fill="#FFFFFF"></path>
                    <path d="M2.17128737,22.1873725 C2.15001115,22.1873725 2.12875663,22.1887305 2.10765342,22.1914383 C1.83375653,22.2265824 1.64020912,22.4771096 1.67535318,22.7510065 L3.29440674,35.3691763 C3.32641983,35.6186718 3.53879998,35.8055424 3.79034093,35.8055424 L25.9374898,35.8055424 C26.1890307,35.8055424 26.4014109,35.6186718 26.433424,35.3691763 L28.0524775,22.7510065 C28.0551853,22.7299032 28.0565433,22.7086487 28.0565433,22.6873725 C28.0565433,22.4112301 27.8326857,22.1873725 27.5565433,22.1873725 L2.17128737,22.1873725 Z" id="Rectangle-6" fill="#E5F1F4"></path>
                </g>
            </g>
            <g id="Device" transform="translate(153.018486, 0.319043)">
                <path d="M9.96393959,68.3501605 L111.174487,68.3501605 L111.174487,3.86635747 C111.174487,2.37518864 109.965656,1.16635747 108.474487,1.16635747 L12.6639396,1.16635747 C11.1727708,1.16635747 9.96393959,2.37518864 9.96393959,3.86635747 L9.96393959,68.3501605 Z" id="device" stroke="#007398" fill="#FFFFFF"></path>
                <path d="M1.6,67.4573726 C0.992486775,67.4573726 0.5,67.9498594 0.5,68.5573726 L0.5,71.0937307 C0.5,71.7012439 0.992486775,72.1937307 1.6,72.1937307 L119.538427,72.1937307 C120.14594,72.1937307 120.638427,71.7012439 120.638427,71.0937307 L120.638427,68.5573726 C120.638427,67.9498594 120.14594,67.4573726 119.538427,67.4573726 L1.6,67.4573726 Z" id="keyboard" stroke="#007398" fill="#FFFFFF"></path>
                <path d="M13.7495154,5.09795893 L13.7495154,64.5560357 L107.388911,64.5560357 L107.388911,5.09795893 L13.7495154,5.09795893 Z" id="screen" stroke="#99C7D5" fill="#FFFFFF"></path>
                <g id="MDLY-logo" transform="translate(48.069213, 27.826997)">
                    <mask id="mask-2" fill="white">
                        <use xlink:href="#path-1"></use>
                    </mask>
                    <use id="logo" fill="#E5222E" xlink:href="#path-1"></use>
                    <g id="color/red" mask="url(#mask-2)" fill="#E81C2D">
                        <g transform="translate(1.000000, 1.000000)" id="color-mask">
                            <rect x="0" y="0" width="23" height="13"></rect>
                        </g>
                    </g>
                </g>
            </g>
        </g>
    </g>
</svg>